<?xml version="1.0" encoding="UTF-8" standalone="no"?>
<!DOCTYPE svg PUBLIC "-//W3C//DTD SVG 1.1//EN"
 "http://www.w3.org/Graphics/SVG/1.1/DTD/svg11.dtd">
<!-- Generated by graphviz version 2.40.1 (20161225.0304)
 -->
<!-- Title: G Pages: 1 -->
<svg width="763pt" height="1322pt"
 viewBox="0.00 0.00 762.71 1322.00" xmlns="http://www.w3.org/2000/svg" xmlns:xlink="http://www.w3.org/1999/xlink">
<g id="graph0" class="graph" transform="scale(1 1) rotate(0) translate(4 1318)">
<title>G</title>
<polygon fill="#ffffff" stroke="transparent" points="-4,4 -4,-1318 758.7108,-1318 758.7108,4 -4,4"/>
<g id="clust1" class="cluster">
<title>cluster_Global</title>
<path fill="none" stroke="#c0c0c0" d="M20,-8C20,-8 734.7108,-8 734.7108,-8 740.7108,-8 746.7108,-14 746.7108,-20 746.7108,-20 746.7108,-1294 746.7108,-1294 746.7108,-1300 740.7108,-1306 734.7108,-1306 734.7108,-1306 20,-1306 20,-1306 14,-1306 8,-1300 8,-1294 8,-1294 8,-20 8,-20 8,-14 14,-8 20,-8"/>
<text text-anchor="middle" x="377.3554" y="-1292.1" font-family="Times,serif" font-size="11.00" fill="#c0c0c0">Global</text>
</g>
<g id="clust2" class="cluster">
<title>cluster_\Blazar</title>
<path fill="none" stroke="#c0c0c0" d="M35.1906,-60C35.1906,-60 726.7108,-60 726.7108,-60 732.7108,-60 738.7108,-66 738.7108,-72 738.7108,-72 738.7108,-1221 738.7108,-1221 738.7108,-1227 732.7108,-1233 726.7108,-1233 726.7108,-1233 35.1906,-1233 35.1906,-1233 29.1906,-1233 23.1906,-1227 23.1906,-1221 23.1906,-1221 23.1906,-72 23.1906,-72 23.1906,-66 29.1906,-60 35.1906,-60"/>
<text text-anchor="middle" x="380.9507" y="-1219.1" font-family="Times,serif" font-size="11.00" fill="#c0c0c0">Blazar</text>
</g>
<g id="clust3" class="cluster">
<title>cluster_\Blazar\Component</title>
<path fill="none" stroke="#c0c0c0" d="M184.3812,-68C184.3812,-68 718.7108,-68 718.7108,-68 724.7108,-68 730.7108,-74 730.7108,-80 730.7108,-80 730.7108,-1003 730.7108,-1003 730.7108,-1009 724.7108,-1015 718.7108,-1015 718.7108,-1015 184.3812,-1015 184.3812,-1015 178.3812,-1015 172.3812,-1009 172.3812,-1003 172.3812,-1003 172.3812,-80 172.3812,-80 172.3812,-74 178.3812,-68 184.3812,-68"/>
<text text-anchor="middle" x="451.546" y="-1001.1" font-family="Times,serif" font-size="11.00" fill="#c0c0c0">Component</text>
</g>
<g id="clust4" class="cluster">
<title>cluster_\Blazar\Component\Dao</title>
<path fill="none" stroke="#c0c0c0" d="M192.3812,-589C192.3812,-589 684.3152,-589 684.3152,-589 690.3152,-589 696.3152,-595 696.3152,-601 696.3152,-601 696.3152,-704 696.3152,-704 696.3152,-710 690.3152,-716 684.3152,-716 684.3152,-716 192.3812,-716 192.3812,-716 186.3812,-716 180.3812,-710 180.3812,-704 180.3812,-704 180.3812,-601 180.3812,-601 180.3812,-595 186.3812,-589 192.3812,-589"/>
<text text-anchor="middle" x="438.3482" y="-702.1" font-family="Times,serif" font-size="11.00" fill="#c0c0c0">Dao</text>
</g>
<g id="clust5" class="cluster">
<title>cluster_\Blazar\Component\FileSystem</title>
<path fill="none" stroke="#c0c0c0" d="M531.1394,-859C531.1394,-859 624.9251,-859 624.9251,-859 630.9251,-859 636.9251,-865 636.9251,-871 636.9251,-871 636.9251,-974 636.9251,-974 636.9251,-980 630.9251,-986 624.9251,-986 624.9251,-986 531.1394,-986 531.1394,-986 525.1394,-986 519.1394,-980 519.1394,-974 519.1394,-974 519.1394,-871 519.1394,-871 519.1394,-865 525.1394,-859 531.1394,-859"/>
<text text-anchor="middle" x="578.0322" y="-972.1" font-family="Times,serif" font-size="11.00" fill="#c0c0c0">FileSystem</text>
</g>
<g id="clust6" class="cluster">
<title>cluster_\Blazar\Component\Image</title>
<path fill="none" stroke="#c0c0c0" d="M527.8399,-724C527.8399,-724 628.2245,-724 628.2245,-724 634.2245,-724 640.2245,-730 640.2245,-736 640.2245,-736 640.2245,-839 640.2245,-839 640.2245,-845 634.2245,-851 628.2245,-851 628.2245,-851 527.8399,-851 527.8399,-851 521.8399,-851 515.8399,-845 515.8399,-839 515.8399,-839 515.8399,-736 515.8399,-736 515.8399,-730 521.8399,-724 527.8399,-724"/>
<text text-anchor="middle" x="578.0322" y="-837.1" font-family="Times,serif" font-size="11.00" fill="#c0c0c0">Image</text>
</g>
<g id="clust7" class="cluster">
<title>cluster_\Blazar\Component\SelectorDOM</title>
<path fill="none" stroke="#c0c0c0" d="M537.7383,-508C537.7383,-508 618.3262,-508 618.3262,-508 624.3262,-508 630.3262,-514 630.3262,-520 630.3262,-520 630.3262,-569 630.3262,-569 630.3262,-575 624.3262,-581 618.3262,-581 618.3262,-581 537.7383,-581 537.7383,-581 531.7383,-581 525.7383,-575 525.7383,-569 525.7383,-569 525.7383,-520 525.7383,-520 525.7383,-514 531.7383,-508 537.7383,-508"/>
<text text-anchor="middle" x="578.0322" y="-567.1" font-family="Times,serif" font-size="11.00" fill="#c0c0c0">SelectorDOM</text>
</g>
<g id="clust8" class="cluster">
<title>cluster_\Blazar\Component\Text</title>
<path fill="none" stroke="#c0c0c0" d="M555.0322,-427C555.0322,-427 601.0322,-427 601.0322,-427 607.0322,-427 613.0322,-433 613.0322,-439 613.0322,-439 613.0322,-488 613.0322,-488 613.0322,-494 607.0322,-500 601.0322,-500 601.0322,-500 555.0322,-500 555.0322,-500 549.0322,-500 543.0322,-494 543.0322,-488 543.0322,-488 543.0322,-439 543.0322,-439 543.0322,-433 549.0322,-427 555.0322,-427"/>
<text text-anchor="middle" x="578.0322" y="-486.1" font-family="Times,serif" font-size="11.00" fill="#c0c0c0">Text</text>
</g>
<g id="clust9" class="cluster">
<title>cluster_\Blazar\Component\TypeRes</title>
<path fill="none" stroke="#c0c0c0" d="M547.6366,-292C547.6366,-292 608.4278,-292 608.4278,-292 614.4278,-292 620.4278,-298 620.4278,-304 620.4278,-304 620.4278,-407 620.4278,-407 620.4278,-413 614.4278,-419 608.4278,-419 608.4278,-419 547.6366,-419 547.6366,-419 541.6366,-419 535.6366,-413 535.6366,-407 535.6366,-407 535.6366,-304 535.6366,-304 535.6366,-298 541.6366,-292 547.6366,-292"/>
<text text-anchor="middle" x="578.0322" y="-405.1" font-family="Times,serif" font-size="11.00" fill="#c0c0c0">TypeRes</text>
</g>
<g id="clust10" class="cluster">
<title>cluster_\Blazar\Component\View</title>
<path fill="none" stroke="#c0c0c0" d="M531.1394,-157C531.1394,-157 624.9251,-157 624.9251,-157 630.9251,-157 636.9251,-163 636.9251,-169 636.9251,-169 636.9251,-272 636.9251,-272 636.9251,-278 630.9251,-284 624.9251,-284 624.9251,-284 531.1394,-284 531.1394,-284 525.1394,-284 519.1394,-278 519.1394,-272 519.1394,-272 519.1394,-169 519.1394,-169 519.1394,-163 525.1394,-157 531.1394,-157"/>
<text text-anchor="middle" x="578.0322" y="-270.1" font-family="Times,serif" font-size="11.00" fill="#c0c0c0">View</text>
</g>
<g id="clust11" class="cluster">
<title>cluster_\Blazar\Component\WebService</title>
<path fill="none" stroke="#c0c0c0" d="M445.3537,-76C445.3537,-76 710.7108,-76 710.7108,-76 716.7108,-76 722.7108,-82 722.7108,-88 722.7108,-88 722.7108,-137 722.7108,-137 722.7108,-143 716.7108,-149 710.7108,-149 710.7108,-149 445.3537,-149 445.3537,-149 439.3537,-149 433.3537,-143 433.3537,-137 433.3537,-137 433.3537,-88 433.3537,-88 433.3537,-82 439.3537,-76 445.3537,-76"/>
<text text-anchor="middle" x="578.0322" y="-135.1" font-family="Times,serif" font-size="11.00" fill="#c0c0c0">WebService</text>
</g>
<g id="clust12" class="cluster">
<title>cluster_\Blazar\Core</title>
<path fill="none" stroke="#c0c0c0" d="M43.1906,-1023C43.1906,-1023 332.3592,-1023 332.3592,-1023 338.3592,-1023 344.3592,-1029 344.3592,-1035 344.3592,-1035 344.3592,-1192 344.3592,-1192 344.3592,-1198 338.3592,-1204 332.3592,-1204 332.3592,-1204 43.1906,-1204 43.1906,-1204 37.1906,-1204 31.1906,-1198 31.1906,-1192 31.1906,-1192 31.1906,-1035 31.1906,-1035 31.1906,-1029 37.1906,-1023 43.1906,-1023"/>
<text text-anchor="middle" x="187.7749" y="-1190.1" font-family="Times,serif" font-size="11.00" fill="#c0c0c0">Core</text>
</g>
<!-- \\Blazar\\Component\\Dao\\CRUDMysql -->
<g id="node1" class="node">
<title>\\Blazar\\Component\\Dao\\CRUDMysql</title>
<polygon fill="none" stroke="#000000" points="688.0986,-633 467.9659,-633 467.9659,-597 688.0986,-597 688.0986,-633"/>
<text text-anchor="middle" x="578.0322" y="-611.7" font-family="Courier,monospace" font-size="11.00" fill="#000000">\Blazar\Component\Dao\CRUDMysql</text>
</g>
<!-- \\Blazar\\Component\\Dao\\Dao -->
<g id="node2" class="node">
<title>\\Blazar\\Component\\Dao\\Dao</title>
<polygon fill="none" stroke="#000000" points="369.3399,-633 188.3949,-633 188.3949,-597 369.3399,-597 369.3399,-633"/>
<text text-anchor="middle" x="278.8674" y="-611.7" font-family="Courier,monospace" font-size="11.00" fill="#000000">\Blazar\Component\Dao\Dao</text>
</g>
<!-- \\Blazar\\Component\\Dao\\CRUDMysql&#45;&gt;\\Blazar\\Component\\Dao\\Dao -->
<g id="edge1" class="edge">
<title>\\Blazar\\Component\\Dao\\CRUDMysql&#45;&gt;\\Blazar\\Component\\Dao\\Dao</title>
<path fill="none" stroke="#000000" d="M467.9088,-615C439.1226,-615 408.2367,-615 379.9464,-615"/>
<polygon fill="none" stroke="#000000" points="379.6498,-611.5001 369.6498,-615 379.6498,-618.5001 379.6498,-611.5001"/>
</g>
<!-- \\Blazar\\Component\\Dao\\DaoException -->
<g id="node3" class="node">
<title>\\Blazar\\Component\\Dao\\DaoException</title>
<polygon fill="none" stroke="#000000" points="625.7192,-687 530.3452,-687 530.3452,-651 625.7192,-651 625.7192,-687"/>
<text text-anchor="middle" x="578.0322" y="-665.7" font-family="Courier,monospace" font-size="11.00" fill="#000000">DaoException</text>
</g>
<!-- \\Blazar\\Core\\BlazarException -->
<g id="node16" class="node">
<title>\\Blazar\\Core\\BlazarException</title>
<polygon fill="none" stroke="#000000" points="336.3509,-1175 221.3839,-1175 221.3839,-1139 336.3509,-1139 336.3509,-1175"/>
<text text-anchor="middle" x="278.8674" y="-1153.7" font-family="Courier,monospace" font-size="11.00" fill="#000000">BlazarException</text>
</g>
<!-- \\Blazar\\Component\\Dao\\DaoException&#45;&gt;\\Blazar\\Core\\BlazarException -->
<g id="edge2" class="edge">
<title>\\Blazar\\Component\\Dao\\DaoException&#45;&gt;\\Blazar\\Core\\BlazarException</title>
<path fill="none" stroke="#000000" d="M530.1683,-673.3201C497.9266,-678.8493 457.0991,-691.426 433.3537,-720 315.4792,-861.8437 490.6626,-991.0822 369.3537,-1130 363.0312,-1137.2402 354.8583,-1142.5802 346.0141,-1146.5107"/>
<polygon fill="none" stroke="#000000" points="344.6893,-1143.2701 336.6041,-1150.117 347.1944,-1149.8066 344.6893,-1143.2701"/>
</g>
<!-- \\Blazar\\Component\\FileSystem\\FileException -->
<g id="node4" class="node">
<title>\\Blazar\\Component\\FileSystem\\FileException</title>
<polygon fill="none" stroke="#000000" points="628.8182,-957 527.2463,-957 527.2463,-921 628.8182,-921 628.8182,-957"/>
<text text-anchor="middle" x="578.0322" y="-935.7" font-family="Courier,monospace" font-size="11.00" fill="#000000">FileException</text>
</g>
<!-- \\Blazar\\Component\\FileSystem\\FileException&#45;&gt;\\Blazar\\Core\\BlazarException -->
<g id="edge3" class="edge">
<title>\\Blazar\\Component\\FileSystem\\FileException&#45;&gt;\\Blazar\\Core\\BlazarException</title>
<path fill="none" stroke="#000000" d="M563.3021,-957.1577C531.7282,-994.9056 453.5291,-1082.2965 369.3537,-1130 362.0752,-1134.1248 354.1029,-1137.678 346.0027,-1140.7236"/>
<polygon fill="none" stroke="#000000" points="344.7455,-1137.4555 336.4687,-1144.0695 347.0635,-1144.0605 344.7455,-1137.4555"/>
</g>
<!-- \\Blazar\\Component\\FileSystem\\FileSystem -->
<g id="node5" class="node">
<title>\\Blazar\\Component\\FileSystem\\FileSystem</title>
<polygon fill="none" stroke="#000000" points="619.0212,-903 537.0432,-903 537.0432,-867 619.0212,-867 619.0212,-903"/>
<text text-anchor="middle" x="578.0322" y="-881.7" font-family="Courier,monospace" font-size="11.00" fill="#000000">FileSystem</text>
</g>
<!-- \\Blazar\\Component\\Image\\Image -->
<g id="node6" class="node">
<title>\\Blazar\\Component\\Image\\Image</title>
<polygon fill="none" stroke="#000000" points="605.0322,-822 551.0322,-822 551.0322,-786 605.0322,-786 605.0322,-822"/>
<text text-anchor="middle" x="578.0322" y="-800.7" font-family="Courier,monospace" font-size="11.00" fill="#000000">Image</text>
</g>
<!-- \\Blazar\\Component\\Image\\ImageException -->
<g id="node7" class="node">
<title>\\Blazar\\Component\\Image\\ImageException</title>
<polygon fill="none" stroke="#000000" points="632.4175,-768 523.6469,-768 523.6469,-732 632.4175,-732 632.4175,-768"/>
<text text-anchor="middle" x="578.0322" y="-746.7" font-family="Courier,monospace" font-size="11.00" fill="#000000">ImageException</text>
</g>
<!-- \\Blazar\\Component\\Image\\ImageException&#45;&gt;\\Blazar\\Core\\BlazarException -->
<g id="edge4" class="edge">
<title>\\Blazar\\Component\\Image\\ImageException&#45;&gt;\\Blazar\\Core\\BlazarException</title>
<path fill="none" stroke="#000000" d="M523.7047,-746.0893C493.1563,-746.9596 456.6009,-753.6329 433.3537,-777 320.8982,-890.0353 475.6941,-1011.1937 369.3537,-1130 362.943,-1137.1622 354.7222,-1142.4599 345.8568,-1146.3716"/>
<polygon fill="none" stroke="#000000" points="344.5294,-1143.1319 336.4336,-1149.9662 347.0243,-1149.6722 344.5294,-1143.1319"/>
</g>
<!-- \\Blazar\\Component\\SelectorDOM\\SelectorDOM -->
<g id="node8" class="node">
<title>\\Blazar\\Component\\SelectorDOM\\SelectorDOM</title>
<polygon fill="none" stroke="#000000" points="622.1211,-552 533.9434,-552 533.9434,-516 622.1211,-516 622.1211,-552"/>
<text text-anchor="middle" x="578.0322" y="-530.7" font-family="Courier,monospace" font-size="11.00" fill="#000000">SelectorDOM</text>
</g>
<!-- \\Blazar\\Component\\Text\\Text -->
<g id="node9" class="node">
<title>\\Blazar\\Component\\Text\\Text</title>
<polygon fill="none" stroke="#000000" points="605.0322,-471 551.0322,-471 551.0322,-435 605.0322,-435 605.0322,-471"/>
<text text-anchor="middle" x="578.0322" y="-449.7" font-family="Courier,monospace" font-size="11.00" fill="#000000">Text</text>
</g>
<!-- \\Blazar\\Component\\TypeRes\\ArrayRes -->
<g id="node10" class="node">
<title>\\Blazar\\Component\\TypeRes\\ArrayRes</title>
<polygon fill="none" stroke="#000000" points="612.3237,-390 543.7407,-390 543.7407,-354 612.3237,-354 612.3237,-390"/>
<text text-anchor="middle" x="578.0322" y="-368.7" font-family="Courier,monospace" font-size="11.00" fill="#000000">ArrayRes</text>
</g>
<!-- \\Blazar\\Component\\TypeRes\\StrRes -->
<g id="node11" class="node">
<title>\\Blazar\\Component\\TypeRes\\StrRes</title>
<polygon fill="none" stroke="#000000" points="605.6271,-336 550.4374,-336 550.4374,-300 605.6271,-300 605.6271,-336"/>
<text text-anchor="middle" x="578.0322" y="-314.7" font-family="Courier,monospace" font-size="11.00" fill="#000000">StrRes</text>
</g>
<!-- \\Blazar\\Component\\View\\View -->
<g id="node12" class="node">
<title>\\Blazar\\Component\\View\\View</title>
<polygon fill="none" stroke="#000000" points="605.0322,-255 551.0322,-255 551.0322,-219 605.0322,-219 605.0322,-255"/>
<text text-anchor="middle" x="578.0322" y="-233.7" font-family="Courier,monospace" font-size="11.00" fill="#000000">View</text>
</g>
<!-- \\Blazar\\Component\\View\\ViewException -->
<g id="node13" class="node">
<title>\\Blazar\\Component\\View\\ViewException</title>
<polygon fill="none" stroke="#000000" points="628.8182,-201 527.2463,-201 527.2463,-165 628.8182,-165 628.8182,-201"/>
<text text-anchor="middle" x="578.0322" y="-179.7" font-family="Courier,monospace" font-size="11.00" fill="#000000">ViewException</text>
</g>
<!-- \\Blazar\\Component\\View\\ViewException&#45;&gt;\\Blazar\\Core\\BlazarException -->
<g id="edge5" class="edge">
<title>\\Blazar\\Component\\View\\ViewException&#45;&gt;\\Blazar\\Core\\BlazarException</title>
<path fill="none" stroke="#000000" d="M527.0016,-178.1336C495.2812,-178.1467 456.3023,-184.2468 433.3537,-210 297.0111,-363.0049 497.441,-970.0205 369.3537,-1130 363.27,-1137.5985 355.1408,-1143.1247 346.2422,-1147.1311"/>
<polygon fill="none" stroke="#000000" points="344.824,-1143.9264 336.7438,-1150.7793 347.3339,-1150.461 344.824,-1143.9264"/>
</g>
<!-- \\Blazar\\Component\\WebService\\WebService -->
<g id="node14" class="node">
<title>\\Blazar\\Component\\WebService\\WebService</title>
<polygon fill="none" stroke="#000000" points="714.8896,-120 441.1749,-120 441.1749,-84 714.8896,-84 714.8896,-120"/>
<text text-anchor="middle" x="578.0322" y="-98.7" font-family="Courier,monospace" font-size="11.00" fill="#000000">\Blazar\Component\WebService\WebService</text>
</g>
<!-- \\Blazar\\Core\\App -->
<g id="node15" class="node">
<title>\\Blazar\\Core\\App</title>
<polygon fill="none" stroke="#000000" points="93.1906,-1067 39.1906,-1067 39.1906,-1031 93.1906,-1031 93.1906,-1067"/>
<text text-anchor="middle" x="66.1906" y="-1045.7" font-family="Courier,monospace" font-size="11.00" fill="#000000">App</text>
</g>
<!-- Exception -->
<g id="node20" class="node">
<title>Exception</title>
<ellipse fill="none" stroke="#000000" cx="66.1906" cy="-1259" rx="50.3819" ry="18"/>
<text text-anchor="middle" x="66.1906" y="-1254.8" font-family="Times,serif" font-size="14.00" fill="#c0c0c0">Exception</text>
</g>
<!-- \\Blazar\\Core\\BlazarException&#45;&gt;Exception -->
<g id="edge6" class="edge">
<title>\\Blazar\\Core\\BlazarException&#45;&gt;Exception</title>
<path fill="none" stroke="#000000" d="M241.3346,-1175.0008C203.2981,-1193.2431 144.6786,-1221.3571 105.8843,-1239.9628"/>
<polygon fill="none" stroke="#000000" points="103.9762,-1236.9962 96.4731,-1244.4765 107.0033,-1243.3078 103.9762,-1236.9962"/>
</g>
<!-- \\Blazar\\Core\\Log -->
<g id="node17" class="node">
<title>\\Blazar\\Core\\Log</title>
<polygon fill="none" stroke="#000000" points="305.8674,-1121 251.8674,-1121 251.8674,-1085 305.8674,-1085 305.8674,-1121"/>
<text text-anchor="middle" x="278.8674" y="-1099.7" font-family="Courier,monospace" font-size="11.00" fill="#000000">Log</text>
</g>
<!-- \\Blazar\\Core\\Manifest -->
<g id="node18" class="node">
<title>\\Blazar\\Core\\Manifest</title>
<polygon fill="none" stroke="#000000" points="313.1589,-1067 244.5759,-1067 244.5759,-1031 313.1589,-1031 313.1589,-1067"/>
<text text-anchor="middle" x="278.8674" y="-1045.7" font-family="Courier,monospace" font-size="11.00" fill="#000000">Manifest</text>
</g>
<!-- \\Blazar\\Core\\Manifest&#45;&gt;\\Blazar\\Core\\App -->
<g id="edge7" class="edge">
<title>\\Blazar\\Core\\Manifest&#45;&gt;\\Blazar\\Core\\App</title>
<path fill="none" stroke="#000000" d="M244.2239,-1049C205.5425,-1049 143.1701,-1049 103.4555,-1049"/>
<polygon fill="none" stroke="#000000" points="103.3846,-1045.5001 93.3846,-1049 103.3845,-1052.5001 103.3846,-1045.5001"/>
</g>
<!-- \\Blazar -->
<g id="node19" class="node">
<title>\\Blazar</title>
<polygon fill="none" stroke="#000000" points="605.6271,-52 550.4374,-52 550.4374,-16 605.6271,-16 605.6271,-52"/>
<text text-anchor="middle" x="578.0322" y="-30.7" font-family="Courier,monospace" font-size="11.00" fill="#000000">Blazar</text>
</g>
</g>
</svg>
