<?xml version="1.0" encoding="UTF-8" standalone="no"?>
<!DOCTYPE svg PUBLIC "-//W3C//DTD SVG 1.1//EN"
 "http://www.w3.org/Graphics/SVG/1.1/DTD/svg11.dtd">
<!-- Generated by graphviz version 2.38.0 (20140413.2041)
 -->
<!-- Title: G Pages: 1 -->
<svg width="600pt" height="1590pt"
 viewBox="0.00 0.00 599.69 1590.00" xmlns="http://www.w3.org/2000/svg" xmlns:xlink="http://www.w3.org/1999/xlink">
<g id="graph0" class="graph" transform="scale(1 1) rotate(0) translate(4 1586)">
<title>G</title>
<polygon fill="white" stroke="none" points="-4,4 -4,-1586 595.69,-1586 595.69,4 -4,4"/>
<g id="clust1" class="cluster"><title>cluster_Global</title>
<path fill="none" stroke="gray" d="M20,-8C20,-8 571.69,-8 571.69,-8 577.69,-8 583.69,-14 583.69,-20 583.69,-20 583.69,-1562 583.69,-1562 583.69,-1568 577.69,-1574 571.69,-1574 571.69,-1574 20,-1574 20,-1574 14,-1574 8,-1568 8,-1562 8,-1562 8,-20 8,-20 8,-14 14,-8 20,-8"/>
<text text-anchor="middle" x="295.845" y="-1561.2" font-family="Times,serif" font-size="11.00" fill="gray">Global</text>
</g>
<g id="clust2" class="cluster"><title>cluster_\Blazar</title>
<path fill="none" stroke="gray" d="M42.8449,-16C42.8449,-16 563.69,-16 563.69,-16 569.69,-16 575.69,-22 575.69,-28 575.69,-28 575.69,-1490 575.69,-1490 575.69,-1496 569.69,-1502 563.69,-1502 563.69,-1502 42.8449,-1502 42.8449,-1502 36.8449,-1502 30.8449,-1496 30.8449,-1490 30.8449,-1490 30.8449,-28 30.8449,-28 30.8449,-22 36.8449,-16 42.8449,-16"/>
<text text-anchor="middle" x="303.267" y="-1489.2" font-family="Times,serif" font-size="11.00" fill="gray">Blazar</text>
</g>
<g id="clust3" class="cluster"><title>cluster_\Blazar\Component</title>
<path fill="none" stroke="gray" d="M216.69,-24C216.69,-24 555.69,-24 555.69,-24 561.69,-24 567.69,-30 567.69,-36 567.69,-36 567.69,-1274 567.69,-1274 567.69,-1280 561.69,-1286 555.69,-1286 555.69,-1286 216.69,-1286 216.69,-1286 210.69,-1286 204.69,-1280 204.69,-1274 204.69,-1274 204.69,-36 204.69,-36 204.69,-30 210.69,-24 216.69,-24"/>
<text text-anchor="middle" x="386.19" y="-1273.2" font-family="Times,serif" font-size="11.00" fill="gray">Component</text>
</g>
<g id="clust4" class="cluster"><title>cluster_\Blazar\Component\Cli</title>
<path fill="none" stroke="gray" d="M397.69,-916C397.69,-916 547.69,-916 547.69,-916 553.69,-916 559.69,-922 559.69,-928 559.69,-928 559.69,-1246 559.69,-1246 559.69,-1252 553.69,-1258 547.69,-1258 547.69,-1258 397.69,-1258 397.69,-1258 391.69,-1258 385.69,-1252 385.69,-1246 385.69,-1246 385.69,-928 385.69,-928 385.69,-922 391.69,-916 397.69,-916"/>
<text text-anchor="middle" x="472.69" y="-1245.2" font-family="Times,serif" font-size="11.00" fill="gray">Cli</text>
</g>
<g id="clust5" class="cluster"><title>cluster_\Blazar\Component\Cli\Composer</title>
<path fill="none" stroke="gray" d="M441.19,-1158C441.19,-1158 504.19,-1158 504.19,-1158 510.19,-1158 516.19,-1164 516.19,-1170 516.19,-1170 516.19,-1218 516.19,-1218 516.19,-1224 510.19,-1230 504.19,-1230 504.19,-1230 441.19,-1230 441.19,-1230 435.19,-1230 429.19,-1224 429.19,-1218 429.19,-1218 429.19,-1170 429.19,-1170 429.19,-1164 435.19,-1158 441.19,-1158"/>
<text text-anchor="middle" x="472.69" y="-1217.2" font-family="Times,serif" font-size="11.00" fill="gray">Composer</text>
</g>
<g id="clust6" class="cluster"><title>cluster_\Blazar\Component\Cli\Helpers</title>
<path fill="none" stroke="gray" d="M444.69,-1024C444.69,-1024 500.69,-1024 500.69,-1024 506.69,-1024 512.69,-1030 512.69,-1036 512.69,-1036 512.69,-1138 512.69,-1138 512.69,-1144 506.69,-1150 500.69,-1150 500.69,-1150 444.69,-1150 444.69,-1150 438.69,-1150 432.69,-1144 432.69,-1138 432.69,-1138 432.69,-1036 432.69,-1036 432.69,-1030 438.69,-1024 444.69,-1024"/>
<text text-anchor="middle" x="472.69" y="-1137.2" font-family="Times,serif" font-size="11.00" fill="gray">Helpers</text>
</g>
<g id="clust7" class="cluster"><title>cluster_\Blazar\Component\Dao</title>
<path fill="none" stroke="gray" d="M224.69,-514C224.69,-514 517.69,-514 517.69,-514 523.69,-514 529.69,-520 529.69,-526 529.69,-526 529.69,-628 529.69,-628 529.69,-634 523.69,-640 517.69,-640 517.69,-640 224.69,-640 224.69,-640 218.69,-640 212.69,-634 212.69,-628 212.69,-628 212.69,-526 212.69,-526 212.69,-520 218.69,-514 224.69,-514"/>
<text text-anchor="middle" x="371.19" y="-627.2" font-family="Times,serif" font-size="11.00" fill="gray">Dao</text>
</g>
<g id="clust8" class="cluster"><title>cluster_\Blazar\Component\FileSystem</title>
<path fill="none" stroke="gray" d="M424.69,-782C424.69,-782 520.69,-782 520.69,-782 526.69,-782 532.69,-788 532.69,-794 532.69,-794 532.69,-896 532.69,-896 532.69,-902 526.69,-908 520.69,-908 520.69,-908 424.69,-908 424.69,-908 418.69,-908 412.69,-902 412.69,-896 412.69,-896 412.69,-794 412.69,-794 412.69,-788 418.69,-782 424.69,-782"/>
<text text-anchor="middle" x="472.69" y="-895.2" font-family="Times,serif" font-size="11.00" fill="gray">FileSystem</text>
</g>
<g id="clust9" class="cluster"><title>cluster_\Blazar\Component\Image</title>
<path fill="none" stroke="gray" d="M421.19,-648C421.19,-648 524.19,-648 524.19,-648 530.19,-648 536.19,-654 536.19,-660 536.19,-660 536.19,-762 536.19,-762 536.19,-768 530.19,-774 524.19,-774 524.19,-774 421.19,-774 421.19,-774 415.19,-774 409.19,-768 409.19,-762 409.19,-762 409.19,-660 409.19,-660 409.19,-654 415.19,-648 421.19,-648"/>
<text text-anchor="middle" x="472.69" y="-761.2" font-family="Times,serif" font-size="11.00" fill="gray">Image</text>
</g>
<g id="clust10" class="cluster"><title>cluster_\Blazar\Component\Log</title>
<path fill="none" stroke="gray" d="M449.69,-434C449.69,-434 495.69,-434 495.69,-434 501.69,-434 507.69,-440 507.69,-446 507.69,-446 507.69,-494 507.69,-494 507.69,-500 501.69,-506 495.69,-506 495.69,-506 449.69,-506 449.69,-506 443.69,-506 437.69,-500 437.69,-494 437.69,-494 437.69,-446 437.69,-446 437.69,-440 443.69,-434 449.69,-434"/>
<text text-anchor="middle" x="472.69" y="-493.2" font-family="Times,serif" font-size="11.00" fill="gray">Log</text>
</g>
<g id="clust11" class="cluster"><title>cluster_\Blazar\Component\TypeRes</title>
<path fill="none" stroke="gray" d="M441.19,-246C441.19,-246 504.19,-246 504.19,-246 510.19,-246 516.19,-252 516.19,-258 516.19,-258 516.19,-414 516.19,-414 516.19,-420 510.19,-426 504.19,-426 504.19,-426 441.19,-426 441.19,-426 435.19,-426 429.19,-420 429.19,-414 429.19,-414 429.19,-258 429.19,-258 429.19,-252 435.19,-246 441.19,-246"/>
<text text-anchor="middle" x="472.69" y="-413.2" font-family="Times,serif" font-size="11.00" fill="gray">TypeRes</text>
</g>
<g id="clust12" class="cluster"><title>cluster_\Blazar\Component\View</title>
<path fill="none" stroke="gray" d="M424.69,-112C424.69,-112 520.69,-112 520.69,-112 526.69,-112 532.69,-118 532.69,-124 532.69,-124 532.69,-226 532.69,-226 532.69,-232 526.69,-238 520.69,-238 520.69,-238 424.69,-238 424.69,-238 418.69,-238 412.69,-232 412.69,-226 412.69,-226 412.69,-124 412.69,-124 412.69,-118 418.69,-112 424.69,-112"/>
<text text-anchor="middle" x="472.69" y="-225.2" font-family="Times,serif" font-size="11.00" fill="gray">View</text>
</g>
<g id="clust13" class="cluster"><title>cluster_\Blazar\Component\WebService</title>
<path fill="none" stroke="gray" d="M434.69,-32C434.69,-32 510.69,-32 510.69,-32 516.69,-32 522.69,-38 522.69,-44 522.69,-44 522.69,-92 522.69,-92 522.69,-98 516.69,-104 510.69,-104 510.69,-104 434.69,-104 434.69,-104 428.69,-104 422.69,-98 422.69,-92 422.69,-92 422.69,-44 422.69,-44 422.69,-38 428.69,-32 434.69,-32"/>
<text text-anchor="middle" x="472.69" y="-91.2" font-family="Times,serif" font-size="11.00" fill="gray">WebService</text>
</g>
<g id="clust14" class="cluster"><title>cluster_\Blazar\Core</title>
<path fill="none" stroke="gray" d="M50.8449,-1294C50.8449,-1294 317.69,-1294 317.69,-1294 323.69,-1294 329.69,-1300 329.69,-1306 329.69,-1306 329.69,-1462 329.69,-1462 329.69,-1468 323.69,-1474 317.69,-1474 317.69,-1474 50.8449,-1474 50.8449,-1474 44.8449,-1474 38.8449,-1468 38.8449,-1462 38.8449,-1462 38.8449,-1306 38.8449,-1306 38.8449,-1300 44.8449,-1294 50.8449,-1294"/>
<text text-anchor="middle" x="184.267" y="-1461.2" font-family="Times,serif" font-size="11.00" fill="gray">Core</text>
</g>
<!-- \\Blazar\\Component\\Cli\\Composer\\Packages -->
<g id="node1" class="node"><title>\\Blazar\\Component\\Cli\\Composer\\Packages</title>
<polygon fill="none" stroke="black" points="508.19,-1202 437.19,-1202 437.19,-1166 508.19,-1166 508.19,-1202"/>
<text text-anchor="middle" x="472.69" y="-1181.2" font-family="Courier,monospace" font-size="11.00">Packages</text>
</g>
<!-- \\Blazar\\Component\\Cli\\Helpers\\Args -->
<g id="node2" class="node"><title>\\Blazar\\Component\\Cli\\Helpers\\Args</title>
<polygon fill="none" stroke="black" points="499.69,-1122 445.69,-1122 445.69,-1086 499.69,-1086 499.69,-1122"/>
<text text-anchor="middle" x="472.69" y="-1101.2" font-family="Courier,monospace" font-size="11.00">Args</text>
</g>
<!-- \\Blazar\\Component\\Cli\\Helpers\\Console -->
<g id="node3" class="node"><title>\\Blazar\\Component\\Cli\\Helpers\\Console</title>
<polygon fill="none" stroke="black" points="504.69,-1068 440.69,-1068 440.69,-1032 504.69,-1032 504.69,-1068"/>
<text text-anchor="middle" x="472.69" y="-1047.2" font-family="Courier,monospace" font-size="11.00">Console</text>
</g>
<!-- \\Blazar\\Component\\Cli\\CliInterface -->
<g id="node4" class="node"><title>\\Blazar\\Component\\Cli\\CliInterface</title>
<polygon fill="none" stroke="black" points="521.69,-1014 423.69,-1014 423.69,-978 521.69,-978 521.69,-1014"/>
<text text-anchor="start" x="438.69" y="-999.2" font-family="Courier,monospace" font-size="11.00">«abstract»</text>
<text text-anchor="start" x="431.69" y="-987.2" font-family="Courier,monospace" font-size="11.00">CliInterface</text>
</g>
<!-- \\Blazar\\Component\\Cli\\CliInterfaceException -->
<g id="node5" class="node"><title>\\Blazar\\Component\\Cli\\CliInterfaceException</title>
<polygon fill="none" stroke="black" points="551.69,-960 393.69,-960 393.69,-924 551.69,-924 551.69,-960"/>
<text text-anchor="middle" x="472.69" y="-939.2" font-family="Courier,monospace" font-size="11.00">CliInterfaceException</text>
</g>
<!-- Exception -->
<g id="node24" class="node"><title>Exception</title>
<ellipse fill="none" stroke="black" cx="73.8449" cy="-1528" rx="57.6901" ry="18"/>
<text text-anchor="middle" x="73.8449" y="-1524.3" font-family="Times,serif" font-size="14.00" fill="gray">Exception</text>
</g>
<!-- \\Blazar\\Component\\Cli\\CliInterfaceException&#45;&gt;Exception -->
<g id="edge1" class="edge"><title>\\Blazar\\Component\\Cli\\CliInterfaceException&#45;&gt;Exception</title>
<path fill="none" stroke="black" d="M395.173,-960.047C391.675,-962.648 388.472,-965.615 385.69,-969 241.159,-1144.8 483.706,-1310.44 329.69,-1478 281.836,-1530.06 196.968,-1537.1 138.399,-1534.74"/>
<polygon fill="none" stroke="black" points="138.311,-1531.23 128.147,-1534.22 137.957,-1538.22 138.311,-1531.23"/>
</g>
<!-- \\Blazar\\Component\\Dao\\CRUDMysql -->
<g id="node6" class="node"><title>\\Blazar\\Component\\Dao\\CRUDMysql</title>
<polygon fill="none" stroke="black" points="514.69,-558 430.69,-558 430.69,-522 514.69,-522 514.69,-558"/>
<text text-anchor="start" x="438.69" y="-543.2" font-family="Courier,monospace" font-size="11.00">«abstract»</text>
<text text-anchor="start" x="442.19" y="-531.2" font-family="Courier,monospace" font-size="11.00">CRUDMysql</text>
</g>
<!-- \\Blazar\\Component\\Dao\\Dao -->
<g id="node7" class="node"><title>\\Blazar\\Component\\Dao\\Dao</title>
<polygon fill="none" stroke="black" points="304.69,-558 220.69,-558 220.69,-522 304.69,-522 304.69,-558"/>
<text text-anchor="start" x="228.69" y="-543.2" font-family="Courier,monospace" font-size="11.00">«abstract»</text>
<text text-anchor="start" x="252.19" y="-531.2" font-family="Courier,monospace" font-size="11.00">Dao</text>
</g>
<!-- \\Blazar\\Component\\Dao\\CRUDMysql&#45;&gt;\\Blazar\\Component\\Dao\\Dao -->
<g id="edge2" class="edge"><title>\\Blazar\\Component\\Dao\\CRUDMysql&#45;&gt;\\Blazar\\Component\\Dao\\Dao</title>
<path fill="none" stroke="black" d="M430.596,-540C397.407,-540 350.527,-540 314.897,-540"/>
<polygon fill="none" stroke="black" points="314.699,-536.5 304.698,-540 314.698,-543.5 314.699,-536.5"/>
</g>
<!-- \\Blazar\\Component\\Dao\\DaoException -->
<g id="node8" class="node"><title>\\Blazar\\Component\\Dao\\DaoException</title>
<polygon fill="none" stroke="black" points="521.69,-612 423.69,-612 423.69,-576 521.69,-576 521.69,-612"/>
<text text-anchor="middle" x="472.69" y="-591.2" font-family="Courier,monospace" font-size="11.00">DaoException</text>
</g>
<!-- \\Blazar\\Core\\BlazarException -->
<g id="node22" class="node"><title>\\Blazar\\Core\\BlazarException</title>
<polygon fill="none" stroke="black" points="321.69,-1392 203.69,-1392 203.69,-1356 321.69,-1356 321.69,-1392"/>
<text text-anchor="middle" x="262.69" y="-1371.2" font-family="Courier,monospace" font-size="11.00">BlazarException</text>
</g>
<!-- \\Blazar\\Component\\Dao\\DaoException&#45;&gt;\\Blazar\\Core\\BlazarException -->
<g id="edge3" class="edge"><title>\\Blazar\\Component\\Dao\\DaoException&#45;&gt;\\Blazar\\Core\\BlazarException</title>
<path fill="none" stroke="black" d="M423.251,-611.737C408.824,-619.43 394.522,-629.969 385.69,-644 302.201,-776.627 422.143,-1220.46 329.69,-1347 329.224,-1347.64 328.741,-1348.26 328.241,-1348.87"/>
<polygon fill="none" stroke="black" points="325.654,-1346.5 320.904,-1355.97 330.523,-1351.53 325.654,-1346.5"/>
</g>
<!-- \\Blazar\\Component\\FileSystem\\FileException -->
<g id="node9" class="node"><title>\\Blazar\\Component\\FileSystem\\FileException</title>
<polygon fill="none" stroke="black" points="524.69,-880 420.69,-880 420.69,-844 524.69,-844 524.69,-880"/>
<text text-anchor="middle" x="472.69" y="-859.2" font-family="Courier,monospace" font-size="11.00">FileException</text>
</g>
<!-- \\Blazar\\Component\\FileSystem\\FileException&#45;&gt;\\Blazar\\Core\\BlazarException -->
<g id="edge4" class="edge"><title>\\Blazar\\Component\\FileSystem\\FileException&#45;&gt;\\Blazar\\Core\\BlazarException</title>
<path fill="none" stroke="black" d="M423.197,-880.235C408.948,-887.922 394.765,-898.331 385.69,-912 277.871,-1074.4 448.472,-1192.44 329.69,-1347 329.209,-1347.63 328.711,-1348.24 328.197,-1348.83"/>
<polygon fill="none" stroke="black" points="325.63,-1346.44 320.72,-1355.83 330.413,-1351.55 325.63,-1346.44"/>
</g>
<!-- \\Blazar\\Component\\FileSystem\\FileSystem -->
<g id="node10" class="node"><title>\\Blazar\\Component\\FileSystem\\FileSystem</title>
<polygon fill="none" stroke="black" points="514.69,-826 430.69,-826 430.69,-790 514.69,-790 514.69,-826"/>
<text text-anchor="middle" x="472.69" y="-805.2" font-family="Courier,monospace" font-size="11.00">FileSystem</text>
</g>
<!-- \\Blazar\\Component\\Image\\Image -->
<g id="node11" class="node"><title>\\Blazar\\Component\\Image\\Image</title>
<polygon fill="none" stroke="black" points="499.69,-746 445.69,-746 445.69,-710 499.69,-710 499.69,-746"/>
<text text-anchor="middle" x="472.69" y="-725.2" font-family="Courier,monospace" font-size="11.00">Image</text>
</g>
<!-- \\Blazar\\Component\\Image\\ImageException -->
<g id="node12" class="node"><title>\\Blazar\\Component\\Image\\ImageException</title>
<polygon fill="none" stroke="black" points="528.19,-692 417.19,-692 417.19,-656 528.19,-656 528.19,-692"/>
<text text-anchor="middle" x="472.69" y="-671.2" font-family="Courier,monospace" font-size="11.00">ImageException</text>
</g>
<!-- \\Blazar\\Component\\Image\\ImageException&#45;&gt;\\Blazar\\Core\\BlazarException -->
<g id="edge5" class="edge"><title>\\Blazar\\Component\\Image\\ImageException&#45;&gt;\\Blazar\\Core\\BlazarException</title>
<path fill="none" stroke="black" d="M416.75,-680.896C404.866,-684.941 393.528,-691.238 385.69,-701 295.474,-813.357 415.102,-1230.95 329.69,-1347 329.222,-1347.64 328.736,-1348.26 328.235,-1348.86"/>
<polygon fill="none" stroke="black" points="325.651,-1346.49 320.878,-1355.95 330.507,-1351.53 325.651,-1346.49"/>
</g>
<!-- \\Blazar\\Component\\Log\\Log -->
<g id="node13" class="node"><title>\\Blazar\\Component\\Log\\Log</title>
<polygon fill="none" stroke="black" points="499.69,-478 445.69,-478 445.69,-442 499.69,-442 499.69,-478"/>
<text text-anchor="middle" x="472.69" y="-457.2" font-family="Courier,monospace" font-size="11.00">Log</text>
</g>
<!-- \\Blazar\\Component\\TypeRes\\ArrayRes -->
<g id="node14" class="node"><title>\\Blazar\\Component\\TypeRes\\ArrayRes</title>
<polygon fill="none" stroke="black" points="508.19,-398 437.19,-398 437.19,-362 508.19,-362 508.19,-398"/>
<text text-anchor="middle" x="472.69" y="-377.2" font-family="Courier,monospace" font-size="11.00">ArrayRes</text>
</g>
<!-- \\Blazar\\Component\\TypeRes\\JSONRes -->
<g id="node15" class="node"><title>\\Blazar\\Component\\TypeRes\\JSONRes</title>
<polygon fill="none" stroke="black" points="504.69,-344 440.69,-344 440.69,-308 504.69,-308 504.69,-344"/>
<text text-anchor="middle" x="472.69" y="-323.2" font-family="Courier,monospace" font-size="11.00">JSONRes</text>
</g>
<!-- \\Blazar\\Component\\TypeRes\\StrRes -->
<g id="node16" class="node"><title>\\Blazar\\Component\\TypeRes\\StrRes</title>
<polygon fill="none" stroke="black" points="501.19,-290 444.19,-290 444.19,-254 501.19,-254 501.19,-290"/>
<text text-anchor="middle" x="472.69" y="-269.2" font-family="Courier,monospace" font-size="11.00">StrRes</text>
</g>
<!-- \\Blazar\\Component\\View\\View -->
<g id="node17" class="node"><title>\\Blazar\\Component\\View\\View</title>
<polygon fill="none" stroke="black" points="499.69,-210 445.69,-210 445.69,-174 499.69,-174 499.69,-210"/>
<text text-anchor="middle" x="472.69" y="-189.2" font-family="Courier,monospace" font-size="11.00">View</text>
</g>
<!-- \\Blazar\\Component\\View\\ViewException -->
<g id="node18" class="node"><title>\\Blazar\\Component\\View\\ViewException</title>
<polygon fill="none" stroke="black" points="524.69,-156 420.69,-156 420.69,-120 524.69,-120 524.69,-156"/>
<text text-anchor="middle" x="472.69" y="-135.2" font-family="Courier,monospace" font-size="11.00">ViewException</text>
</g>
<!-- \\Blazar\\Component\\View\\ViewException&#45;&gt;\\Blazar\\Core\\BlazarException -->
<g id="edge6" class="edge"><title>\\Blazar\\Component\\View\\ViewException&#45;&gt;\\Blazar\\Core\\BlazarException</title>
<path fill="none" stroke="black" d="M420.505,-143.399C407.182,-147.348 394.196,-153.971 385.69,-165 225.095,-373.226 481.388,-1132.21 329.69,-1347 329.321,-1347.52 328.941,-1348.03 328.55,-1348.53"/>
<polygon fill="none" stroke="black" points="325.874,-1346.26 321.317,-1355.83 330.844,-1351.19 325.874,-1346.26"/>
</g>
<!-- \\Blazar\\Component\\WebService\\WebService -->
<g id="node19" class="node"><title>\\Blazar\\Component\\WebService\\WebService</title>
<polygon fill="none" stroke="black" points="514.69,-76 430.69,-76 430.69,-40 514.69,-40 514.69,-76"/>
<text text-anchor="middle" x="472.69" y="-55.2" font-family="Courier,monospace" font-size="11.00">WebService</text>
</g>
<!-- \\Blazar\\Core\\App -->
<g id="node20" class="node"><title>\\Blazar\\Core\\App</title>
<polygon fill="none" stroke="black" points="100.845,-1338 46.8449,-1338 46.8449,-1302 100.845,-1302 100.845,-1338"/>
<text text-anchor="middle" x="73.8449" y="-1317.2" font-family="Courier,monospace" font-size="11.00">App</text>
</g>
<!-- \\Blazar\\Core\\Blazar -->
<g id="node21" class="node"><title>\\Blazar\\Core\\Blazar</title>
<polygon fill="none" stroke="black" points="291.19,-1446 234.19,-1446 234.19,-1410 291.19,-1410 291.19,-1446"/>
<text text-anchor="middle" x="262.69" y="-1425.2" font-family="Courier,monospace" font-size="11.00">Blazar</text>
</g>
<!-- \\Blazar\\Core\\BlazarException&#45;&gt;Exception -->
<g id="edge7" class="edge"><title>\\Blazar\\Core\\BlazarException&#45;&gt;Exception</title>
<path fill="none" stroke="black" d="M217.894,-1392.15C212.94,-1394.84 208.096,-1397.81 203.69,-1401 165.758,-1428.5 165.32,-1445.38 131.69,-1478 122.477,-1486.94 112.021,-1496.33 102.611,-1504.53"/>
<polygon fill="none" stroke="black" points="100.281,-1501.92 95.0025,-1511.11 104.858,-1507.22 100.281,-1501.92"/>
</g>
<!-- \\Blazar\\Core\\Manifest -->
<g id="node23" class="node"><title>\\Blazar\\Core\\Manifest</title>
<polygon fill="none" stroke="black" points="298.19,-1338 227.19,-1338 227.19,-1302 298.19,-1302 298.19,-1338"/>
<text text-anchor="middle" x="262.69" y="-1317.2" font-family="Courier,monospace" font-size="11.00">Manifest</text>
</g>
<!-- \\Blazar\\Core\\Manifest&#45;&gt;\\Blazar\\Core\\App -->
<g id="edge8" class="edge"><title>\\Blazar\\Core\\Manifest&#45;&gt;\\Blazar\\Core\\App</title>
<path fill="none" stroke="black" d="M226.984,-1320C194.034,-1320 144.698,-1320 111.211,-1320"/>
<polygon fill="none" stroke="black" points="110.937,-1316.5 100.937,-1320 110.937,-1323.5 110.937,-1316.5"/>
</g>
</g>
</svg>
